<?xml version="1.0" encoding="UTF-8" standalone="no"?>
<!-- Created with Inkscape (http://www.inkscape.org/) -->

<svg
   xmlns:dc="http://purl.org/dc/elements/1.1/"
   xmlns:cc="http://creativecommons.org/ns#"
   xmlns:rdf="http://www.w3.org/1999/02/22-rdf-syntax-ns#"
   xmlns:svg="http://www.w3.org/2000/svg"
   xmlns="http://www.w3.org/2000/svg"
   xmlns:sodipodi="http://sodipodi.sourceforge.net/DTD/sodipodi-0.dtd"
   xmlns:inkscape="http://www.inkscape.org/namespaces/inkscape"
   width="56.810905"
   height="43.242428"
   id="svg14114"
   version="1.1"
   inkscape:version="0.48.4 r9939"
   sodipodi:docname="Locomotive.svg">
  <title
     id="title14219">Locomotive outlines</title>
  <defs
     id="defs14116" />
  <sodipodi:namedview
     id="base"
     pagecolor="#ffffff"
     bordercolor="#666666"
     borderopacity="1.0"
     inkscape:pageopacity="0.0"
     inkscape:pageshadow="2"
     inkscape:zoom="6.1670309"
     inkscape:cx="28.782659"
     inkscape:cy="18.862435"
     inkscape:document-units="px"
     inkscape:current-layer="g13192"
     showgrid="false"
     fit-margin-top="10"
     fit-margin-right="10"
     fit-margin-bottom="10"
     fit-margin-left="10"
     inkscape:window-width="624"
     inkscape:window-height="453"
     inkscape:window-x="640"
     inkscape:window-y="360"
     inkscape:window-maximized="0"
     inkscape:snap-bbox="true"
     inkscape:bbox-paths="true"
     inkscape:bbox-nodes="true"
     inkscape:snap-bbox-edge-midpoints="true"
     inkscape:snap-bbox-midpoints="true"
     inkscape:object-paths="true"
     inkscape:snap-intersection-paths="true"
     inkscape:object-nodes="true"
     inkscape:snap-smooth-nodes="true"
     inkscape:snap-midpoints="true"
     inkscape:snap-object-midpoints="true"
     inkscape:snap-center="true"
     inkscape:snap-global="false" />
  <metadata
     id="metadata14119">
    <rdf:RDF>
      <cc:Work
         rdf:about="">
        <dc:format>image/svg+xml</dc:format>
        <dc:type
           rdf:resource="http://purl.org/dc/dcmitype/StillImage" />
        <cc:license
           rdf:resource="http://creativecommons.org/licenses/publicdomain/" />
        <dc:title>Locomotive outlines</dc:title>
        <dc:date>2015-07-01</dc:date>
        <dc:creator>
          <cc:Agent>
            <dc:title>m1981</dc:title>
          </cc:Agent>
        </dc:creator>
        <dc:subject>
          <rdf:Bag>
            <rdf:li>locomotive</rdf:li>
            <rdf:li>train</rdf:li>
            <rdf:li>toy</rdf:li>
            <rdf:li>outlines</rdf:li>
          </rdf:Bag>
        </dc:subject>
      </cc:Work>
      <cc:License
         rdf:about="http://creativecommons.org/licenses/publicdomain/">
        <cc:permits
           rdf:resource="http://creativecommons.org/ns#Reproduction" />
        <cc:permits
           rdf:resource="http://creativecommons.org/ns#Distribution" />
        <cc:permits
           rdf:resource="http://creativecommons.org/ns#DerivativeWorks" />
      </cc:License>
    </rdf:RDF>
  </metadata>
  <g
     inkscape:label="Calque 1"
     inkscape:groupmode="layer"
     id="layer1"
     transform="translate(-346.58899,-510.7335)">
    <g
       id="g13192"
       transform="translate(253.99529,323.45256)"
       style="fill:none;stroke:#000000;stroke-width:0.80000001;stroke-miterlimit:4;stroke-dasharray:none">
      <g
         id="g3052">
        <rect
           transform="translate(92.5937,187.28094)"
           y="13.8789"
           x="19.89044"
           height="5.0841398"
           width="3.9688001"
           id="rect3799"
           style="opacity:1;color:#000000;fill:#ffff00;fill-opacity:1;fill-rule:nonzero;stroke:none;stroke-width:0.80000000999999998;marker:none;visibility:visible;display:inline;overflow:visible;enable-background:accumulate" />
        <path
           sodipodi:nodetypes="cssccc"
           inkscape:connector-curvature="0"
           id="path4110"
           d="m 112.54003,201.78663 c 0.52179,0 1.66533,0.008 1.66533,0.40408 0,0.58574 -0.97979,0.20636 -0.97979,0.96575 0,0.64362 -0.006,1.51482 -0.006,3.08752 l -0.67998,0 z"
           style="opacity:0.7;color:#000000;fill:#ffffff;fill-opacity:1;fill-rule:nonzero;stroke:none;stroke-width:1px;marker:none;visibility:visible;display:inline;overflow:visible;enable-background:accumulate" />
        <path
           id="path3831"
           transform="translate(92.5937,187.28094)"
           d="M 33.84375 12.75 C 32.061428 12.739975 30.291845 13.11901 29.71875 13.875 L 29.71875 24.90625 C 30.048578 24.537144 30.42314 24.198382 30.875 23.9375 C 31.577392 23.531974 32.322856 23.304259 33.09375 23.28125 C 34.378574 23.242901 35.669165 23.731666 36.625 24.6875 L 37.375 25.6875 C 37.403731 25.737264 37.410728 25.793402 37.4375 25.84375 L 37.5 25.84375 L 41.65625 25.84375 L 41.65625 20.4375 C 41.65625 20.4375 38.03125 20.73612 38.03125 17.3125 L 38.03125 13.875 C 37.401745 13.15911 35.626072 12.760025 33.84375 12.75 z M 31.9375 15.25 L 35.875 15.25 C 36.11392 15.25 36.3125 15.41731 36.3125 15.65625 L 36.3125 19.53125 C 36.3125 19.77017 36.11392 19.96875 35.875 19.96875 L 31.9375 19.96875 C 31.69858 19.96875 31.53125 19.77017 31.53125 19.53125 L 31.53125 15.65625 C 31.53125 15.41731 31.69858 15.25 31.9375 15.25 z "
           style="color:#000000;fill:#ffff00;stroke:none;stroke-width:0.80000001;marker:none;visibility:visible;display:inline;overflow:visible;enable-background:accumulate" />
        <path
           sodipodi:nodetypes="zssczzscccccss"
           transform="translate(92.5937,187.28094)"
           inkscape:connector-curvature="0"
           id="path4102"
           d="m 36.445291,20.928948 c 0.623868,0 0.467127,-0.869549 1.288959,-0.869549 0.504732,0 0.454206,0.426575 0.454206,1.554439 0,1.5818 1.686831,1.820936 0.512557,2.498903 0,0 -1.066847,-1.499133 -1.789586,-1.822437 -0.72274,-0.323304 -1.090004,-1.361356 -0.466136,-1.361356 z m -4.711009,1.142355 c -1.074305,0 -2.007714,1.936513 -2.007714,-1.57376 l -0.0078,-5.98824 c 0.261885,-0.453598 2.183881,-1.030276 1.822848,-0.02044 -0.21573,0 -0.902936,0.312588 -0.902936,1.378352 l 0,4.092269 c 0,0.49514 0.335687,0.969464 0.969464,0.969464 0.516642,0 1.35246,1.142355 0.126138,1.142355 z"
           style="opacity:0.7;color:#000000;fill:#ffffff;fill-opacity:1;fill-rule:nonzero;stroke:none;stroke-width:1px;marker:none;visibility:visible;display:inline;overflow:visible;enable-background:accumulate" />
        <path
           sodipodi:nodetypes="ccsscc"
           inkscape:connector-curvature="0"
           id="path3928"
           d="m 109.4866,213.24835 24.47492,0 c 0.54026,0 0.9752,0.43494 0.9752,0.9752 l 0,1.9504 c 0,0.54026 -0.43494,0.9752 -0.9752,0.9752 l -22.55454,0"
           style="color:#000000;fill:#c39797;fill-opacity:1;stroke:none;stroke-width:0.80000000999999998;marker:none;visibility:visible;display:inline;overflow:visible;enable-background:accumulate" />
        <path
           sodipodi:nodetypes="csssccsc"
           inkscape:connector-curvature="0"
           id="path4086"
           d="m 111.49159,213.97456 c -0.37955,0 -0.13872,0.25986 0.1948,0.25986 2.18241,0 2.51596,0.75636 2.75427,0.75636 0.19948,0 0.61843,-0.80846 2.91454,-0.80846 1.50857,0 1.67148,0.64654 2.32145,0.64654 0,-0.95678 0.77063,-0.88212 -0.50677,-0.88212 0,0 -7.29873,0.0278 -7.67829,0.0278 z"
           style="opacity:0.7;color:#000000;fill:#ffffff;fill-opacity:1;fill-rule:nonzero;stroke:none;stroke-width:1px;marker:none;visibility:visible;display:inline;overflow:visible;enable-background:accumulate" />
        <path
           sodipodi:nodetypes="cccccccccc"
           inkscape:connector-curvature="0"
           id="path3801"
           d="m 112.39034,197.69109 -1.375,1.375 c -0.191,0.188 -0.191,0.4995 0,0.6875 l 1.4063,1.40625 4.0937,-5e-5 1.4063,-1.40625 c 0.191,-0.188 0.191,-0.4995 0,-0.6875 l -1.4063,-1.375 -4.125,0 z"
           style="color:#000000;fill:#de0000;stroke:none;stroke-width:0.80000000999999998;stroke-linecap:round;stroke-linejoin:round;stroke-miterlimit:4;stroke-opacity:1;stroke-dasharray:none;stroke-dashoffset:0;marker:none;visibility:visible;display:inline;overflow:visible;enable-background:accumulate;fill-opacity:1" />
        <path
           style="opacity:0.7;color:#000000;fill:#ffffff;fill-opacity:1;fill-rule:nonzero;stroke:none;stroke-width:0.80000001;marker:none;visibility:visible;display:inline;overflow:visible;enable-background:accumulate"
           d="m 112.49005,197.93165 -1.15722,1.15722 c -0.16075,0.15823 -0.16075,0.42039 0,0.57862 l 0.24301,0.68558 c 1.10006,0.12003 0.96425,-0.78773 1.27523,-1.1742 0.73269,-0.91044 3.81396,0.83941 3.71924,-1.41324 l -4.08026,0.16598 z"
           id="path4070"
           inkscape:connector-curvature="0"
           sodipodi:nodetypes="ccccsccc" />
        <path
           sodipodi:nodetypes="csssccc"
           inkscape:connector-curvature="0"
           id="path3029"
           d="m 121.42168,213.24836 -11.32556,0 c -0.74837,0 -1.35085,-1.56197 -1.35085,-3.50219 0,-1.94021 0.60248,-3.50219 1.35085,-3.50219 l 12.21619,0 0.0306,5.90065 z"
           style="color:#000000;fill:#427bff;stroke:none;stroke-width:0.80000000999999998;marker:none;visibility:visible;display:inline;overflow:visible;enable-background:accumulate;fill-opacity:1" />
        <path
           style="opacity:0.7;color:#000000;fill:#ffffff;fill-opacity:1;fill-rule:nonzero;stroke:none;stroke-width:0.80000001;marker:none;visibility:visible;display:inline;overflow:visible;enable-background:accumulate"
           d="m 110.83868,212.2037 -0.64029,0 c -0.5942,0 -1.07256,-1.24019 -1.07256,-2.78071 0,-1.54051 0.47836,-2.78071 1.07256,-2.78071 l 9.69955,0 c 0.88292,0 1.72641,1.91027 0.0243,2.50626 -3.23917,0.76667 -11.17606,-4.06247 -9.08356,3.05516 z"
           id="path4062"
           inkscape:connector-curvature="0"
           sodipodi:nodetypes="csssccc" />
        <path
           sodipodi:nodetypes="cscccc"
           inkscape:connector-curvature="0"
           id="path3933"
           d="m 108.94908,211.90284 -5.22079,5.35139 c -0.49245,0.50476 -0.72233,1.1635 -0.72233,1.82224 l 6.67711,0 1.14865,-3.05736 z"
           style="color:#000000;fill:#de0000;fill-opacity:1;fill-rule:nonzero;stroke:none;stroke-width:0.80000001;marker:none;visibility:visible;display:inline;overflow:visible;enable-background:accumulate" />
        <path
           sodipodi:nodetypes="ccccscc"
           inkscape:connector-curvature="0"
           id="path4042"
           d="m 107.66653,213.51205 -4.45817,4.41045 c -0.22482,0.23044 -0.22518,0.55389 -0.32705,0.8358 l 1.59892,0 c -0.7632,-2.52677 2.16703,-0.79316 2.96759,-1.64065 0.8018,-0.84882 -1.06606,-3.17749 1.6838,-3.26511 0,0 -0.64445,-1.16111 -1.46509,-0.34049 z"
           style="opacity:0.7;color:#000000;fill:#ffffff;fill-opacity:1;fill-rule:nonzero;stroke:none;stroke-width:0.80000001;marker:none;visibility:visible;display:inline;overflow:visible;enable-background:accumulate" />
        <path
           style="color:#000000;fill:#0beb00;fill-opacity:1;fill-rule:nonzero;stroke:none;stroke-width:0.79999995;marker:none;visibility:visible;display:inline;overflow:visible;enable-background:accumulate"
           d="m 111.62625,215.74969 c -1.22701,0 -2.21875,0.96057 -2.21875,2.15625 0,1.19568 0.99174,2.1875 2.21875,2.1875 1.22701,0 2.25,-0.99182 2.25,-2.1875 -0.1424,-0.55323 -0.15923,-1.06224 -0.90625,-1.71875 -0.38413,-0.27995 -0.86407,-0.4375 -1.34375,-0.4375 z"
           id="path3909"
           inkscape:connector-curvature="0"
           sodipodi:nodetypes="sssccs" />
        <path
           sodipodi:nodetypes="ccsc"
           inkscape:connector-curvature="0"
           id="path4036"
           d="m 110.14825,218.37515 c -0.39956,-1.4446 1.17412,-2.52035 2.26832,-1.70893 -1.23166,-0.0827 -0.5431,0.94619 -0.84216,1.21715 -0.28004,0.25371 -1.12426,-0.59732 -1.42616,0.49178 z"
           style="opacity:0.7;fill:#ffffff;stroke:none" />
        <path
           sodipodi:nodetypes="sssccs"
           inkscape:connector-curvature="0"
           id="path3883"
           d="m 117.37495,215.74969 c 1.22701,0 2.21875,0.96057 2.21875,2.15625 0,1.19568 -0.99174,2.1875 -2.21875,2.1875 -1.22701,0 -2.25,-0.99182 -2.25,-2.1875 0.1424,-0.55323 0.15923,-1.06224 0.90625,-1.71875 0.38413,-0.27995 0.86407,-0.4375 1.34375,-0.4375 z"
           style="color:#000000;fill:#0beb00;fill-opacity:1;fill-rule:nonzero;stroke:none;stroke-width:0.79999995;marker:none;visibility:visible;display:inline;overflow:visible;enable-background:accumulate" />
        <path
           style="opacity:0.7;fill:#ffffff;stroke:none"
           d="m 115.89238,218.37515 c -0.39956,-1.4446 1.17412,-2.52035 2.26832,-1.70893 -1.23166,-0.0827 -0.5431,0.94619 -0.84216,1.21715 -0.28004,0.25371 -1.12426,-0.59732 -1.42616,0.49178 z"
           id="path4034"
           inkscape:connector-curvature="0"
           sodipodi:nodetypes="ccsc" />
        <path
           id="path3848"
           transform="translate(92.5937,187.28094)"
           d="M 33.09375 23.28125 C 32.322856 23.304259 31.577392 23.531974 30.875 23.9375 C 28.589445 25.257066 27.805434 28.183195 29.125 30.46875 C 30.444566 32.754305 33.370695 33.538316 35.65625 32.21875 C 37.941805 30.899184 38.694566 27.973055 37.375 25.6875 L 36.625 24.6875 C 35.669165 23.731666 34.378574 23.242901 33.09375 23.28125 z "
           style="color:#000000;fill:#0beb00;stroke:none;stroke-width:0.79999995000000002;stroke-linecap:round;stroke-linejoin:round;stroke-miterlimit:4;stroke-opacity:1;stroke-dasharray:none;stroke-dashoffset:0;marker:none;visibility:visible;display:inline;overflow:visible;enable-background:accumulate;fill-opacity:1;fill-rule:nonzero" />
        <path
           transform="translate(92.5937,187.28094)"
           sodipodi:nodetypes="ccsc"
           inkscape:connector-curvature="0"
           id="path4032"
           d="m 29.479948,29.426797 c -1.072898,-3.878941 3.152671,-6.767514 6.090762,-4.588704 -3.307194,-0.222052 -1.458293,2.540654 -2.26134,3.268213 -0.751913,0.681231 -3.018765,-1.60388 -3.829422,1.320491 z"
           style="opacity:0.7;fill:#ffffff;stroke:none" />
        <path
           id="path3820"
           transform="translate(92.5937,187.28094)"
           d="M 29.6875 10.40625 C 29.1472 10.40625 28.71875 10.83474 28.71875 11.375 L 28.71875 12.84375 C 28.71875 13.38401 29.1472 13.8125 29.6875 13.8125 L 29.78125 13.8125 C 31.002115 12.419492 36.380846 12.447168 37.875 13.71875 L 38.0625 13.71875 L 41.46875 13.15625 C 42.00215 13.07095 42.4375 12.72776 42.4375 12.1875 L 42.4375 11.375 C 42.4375 10.83474 42.00895 10.40625 41.46875 10.40625 L 29.6875 10.40625 z "
           style="color:#000000;fill:#de0000;stroke:none;stroke-width:0.80000000999999998;stroke-linecap:round;stroke-linejoin:round;stroke-miterlimit:4;stroke-opacity:1;stroke-dasharray:none;stroke-dashoffset:0;marker:none;visibility:visible;display:inline;overflow:visible;enable-background:accumulate;fill-opacity:1;fill-rule:nonzero" />
        <path
           sodipodi:nodetypes="csccccc"
           transform="translate(92.5937,187.28094)"
           inkscape:connector-curvature="0"
           id="path4078"
           d="m 28.73424,12.113275 c 1.172318,0.0024 1.138929,-0.769368 2.254307,-0.76907 l 8.98569,0.0024 c 0.648625,0 0.867923,-0.185063 0.867923,-0.908636 l -11.13922,-0.02787 c -0.697648,0.156362 -0.93248,0.51842 -0.9687,0.96875 z"
           style="opacity:0.7;color:#000000;fill:#ffffff;fill-opacity:1;fill-rule:nonzero;stroke:none;stroke-width:1px;marker:none;visibility:visible;display:inline;overflow:visible;enable-background:accumulate" />
        <path
           style="color:#000000;fill:none;stroke:#000000;stroke-width:0.80000001;stroke-linecap:round;stroke-linejoin:round;stroke-miterlimit:4;stroke-opacity:1;stroke-dasharray:none;stroke-dashoffset:0;marker:none;visibility:visible;display:inline;overflow:visible;enable-background:accumulate"
           d="m 112.39034,197.69109 -1.375,1.375 c -0.191,0.188 -0.191,0.4995 0,0.6875 l 1.4063,1.40625 0.0625,0 0,5.0625 3.9688,0.0312 0,-5.09375 0.0624,0 1.4063,-1.40625 c 0.191,-0.188 0.191,-0.4995 0,-0.6875 l -1.4063,-1.375 -4.125,0 z"
           id="path13195"
           inkscape:connector-curvature="0" />
        <path
           style="color:#000000;fill:none;stroke:#000000;stroke-width:0.80000000999999998;stroke-linecap:round;stroke-linejoin:round;stroke-miterlimit:4;stroke-opacity:1;stroke-dasharray:none;stroke-dashoffset:0;marker:none;visibility:visible;display:inline;overflow:visible;enable-background:accumulate;fill-opacity:1"
           d="m 115.32793,217.14915 -1.57031,0 m -3.96846,-3.9008 11.79872,0 m 8.53693,0 3.83671,0 c 0.54026,0 0.9752,0.43494 0.9752,0.9752 l 0,1.9504 c 0,0.54026 -0.43494,0.9752 -0.9752,0.9752 l -3.7039,0 m -8.91406,0 -1.88281,0"
           id="path13197"
           inkscape:connector-curvature="0"
           sodipodi:nodetypes="cccccssssccc" />
        <path
           style="color:#000000;fill:none;stroke:#000000;stroke-width:0.80000000999999998;stroke-linecap:round;stroke-linejoin:round;stroke-miterlimit:4;stroke-opacity:1;stroke-dasharray:none;stroke-dashoffset:0;marker:none;visibility:visible;display:inline;overflow:visible;enable-background:accumulate"
           d="m 121.42168,213.24836 -11.32556,0 c -0.74837,0 -1.35085,-1.56197 -1.35085,-3.50219 0,-1.94021 0.60248,-3.50219 1.35085,-3.50219 l 12.21619,0"
           id="path13199"
           inkscape:connector-curvature="0"
           sodipodi:nodetypes="csssc" />
        <path
           style="color:#000000;fill:none;stroke:#000000;stroke-width:0.80000000999999998;stroke-linecap:round;stroke-linejoin:round;stroke-miterlimit:4;stroke-opacity:1;stroke-dasharray:none;stroke-dashoffset:0;marker:none;visibility:visible;display:inline;overflow:visible;enable-background:accumulate"
           d="m 130.65594,200.98797 3.422,-0.54688 c 0.5334,-0.0853 0.9687,-0.42849 0.9687,-0.96875 l 0,-0.8125 c 0,-0.54026 -0.4285,-0.96875 -0.9687,-0.96875 l -11.7813,0 c -0.5403,0 -0.9687,0.42849 -0.9687,0.96875 l 0,1.46875 c 0,0.54026 0.4284,0.96875 0.9687,0.96875"
           id="path13201"
           inkscape:connector-curvature="0"
           sodipodi:nodetypes="csssssssc" />
        <path
           d="m 134.25441,212.56279 0,-4.84268 c 0,0 -3.62392,0.30793 -3.62392,-3.11569 l 0,-3.46222 c -1.25901,-1.43178 -7.1857,-1.51198 -8.33189,0 l 0,11.0567 m 2.24759,-9.67775 3.91934,0 c 0.23892,0 0.42665,0.18771 0.42665,0.42665 l 0,3.87157 c 0,0.23892 -0.18773,0.43422 -0.42665,0.43422 l -3.91934,0 c -0.23892,0 -0.42666,-0.1953 -0.42666,-0.43422 l 0,-3.87157 c 0,-0.23894 0.18774,-0.42665 0.42666,-0.42665 z"
           style="color:#000000;fill:none;stroke:#000000;stroke-width:0.80000001;stroke-linecap:round;stroke-linejoin:round;stroke-miterlimit:4;stroke-opacity:1;stroke-dasharray:none;stroke-dashoffset:0;marker:none;visibility:visible;display:inline;overflow:visible;enable-background:accumulate"
           id="path13203"
           inkscape:connector-curvature="0"
           sodipodi:nodetypes="ccccccsssssssss" />
        <g
           style="fill:none;stroke:#000000;stroke-width:0.91447967;stroke-miterlimit:4;stroke-dasharray:none"
           id="g13205"
           transform="matrix(0.87481441,0,0,0.87481441,17.66803,26.670841)">
          <path
             id="path13207"
             sodipodi:rx="14"
             sodipodi:ry="14"
             style="color:#000000;fill:none;stroke:#000000;stroke-width:2.34379745;stroke-linecap:round;stroke-linejoin:round;stroke-miterlimit:4;stroke-opacity:1;stroke-dasharray:none;stroke-dashoffset:0;marker:none;visibility:visible;display:inline;overflow:visible;enable-background:accumulate"
             sodipodi:type="arc"
             d="M 106.12436,103 C 109.99035,109.6961 107.6961,118.25836 101,122.12436 94.303904,125.99035 85.741638,123.6961 81.875645,117 78.009651,110.3039 80.303903,101.74164 87,97.875645 c 5.48755,-3.168239 12.418922,-2.255708 16.89949,2.224855"
             transform="matrix(0.39017011,0,0,0.39017011,86.982137,172.75903)"
             sodipodi:cy="110"
             sodipodi:cx="94"
             sodipodi:start="5.7595865"
             sodipodi:end="11.780972"
             sodipodi:open="true" />
          <path
             id="path13209"
             sodipodi:rx="14"
             sodipodi:ry="14"
             style="color:#000000;fill:none;stroke:#000000;stroke-width:10.21254444;stroke-linecap:round;stroke-linejoin:round;stroke-miterlimit:4;stroke-opacity:1;stroke-dasharray:none;stroke-dashoffset:0;marker:none;visibility:visible;display:inline;overflow:visible;enable-background:accumulate"
             sodipodi:type="arc"
             d="m 90.376534,123.52296 c -7.468526,-2.00118 -11.900681,-9.6779 -9.899496,-17.14643 2.001186,-7.468522 9.677903,-11.900677 17.146428,-9.899492 7.468524,2.001186 11.900684,9.677902 9.899494,17.146432 -0.31666,1.18179 -0.78687,2.31697 -1.3986,3.37653"
             transform="matrix(0.08954474,0,0,0.08954474,115.24055,205.82718)"
             sodipodi:cy="110"
             sodipodi:cx="94"
             sodipodi:start="1.8325957"
             sodipodi:end="6.8067841"
             sodipodi:open="true" />
          <path
             id="path13211"
             sodipodi:rx="14"
             sodipodi:ry="14"
             style="color:#000000;fill:none;stroke:#000000;stroke-width:3.70437288;stroke-linecap:round;stroke-linejoin:round;stroke-miterlimit:4;stroke-opacity:1;stroke-dasharray:none;stroke-dashoffset:0;marker:none;visibility:visible;display:inline;overflow:visible;enable-background:accumulate"
             sodipodi:type="arc"
             d="m 90.497249,96.445269 c 7.486072,-1.934516 15.122971,2.565909 17.057481,10.051981 1.93452,7.48607 -2.56591,15.12297 -10.051979,17.05748 -5.37497,1.38898 -11.062893,-0.52922 -14.498936,-4.88963"
             transform="matrix(0.24715883,0,0,0.24657135,100.3308,188.57727)"
             sodipodi:cy="110"
             sodipodi:cx="94"
             sodipodi:start="4.4595058"
             sodipodi:end="8.7573912"
             sodipodi:open="true" />
        </g>
        <path
           sodipodi:cx="94"
           sodipodi:cy="110"
           transform="matrix(0.15869278,0,0,0.15464073,96.686631,200.90657)"
           d="m 80.477038,106.37653 c 2.001185,-7.468522 9.677903,-11.900677 17.146428,-9.899492 7.468524,2.001185 11.900684,9.677902 9.899494,17.146432 -2.00118,7.46852 -9.677901,11.90068 -17.146426,9.89949 -4.831289,-1.29454 -8.604956,-5.0682 -9.899496,-9.89949"
           sodipodi:type="arc"
           style="color:#000000;fill:none;stroke:#000000;stroke-width:5.10680723;stroke-linecap:round;stroke-linejoin:round;stroke-miterlimit:4;stroke-opacity:1;stroke-dasharray:none;stroke-dashoffset:0;marker:none;visibility:visible;display:inline;overflow:visible;enable-background:accumulate"
           sodipodi:ry="14"
           sodipodi:rx="14"
           id="path13213"
           sodipodi:start="3.403392"
           sodipodi:end="9.1629786"
           sodipodi:open="true" />
        <path
           sodipodi:cx="94"
           sodipodi:cy="110"
           transform="matrix(0.15869278,0,0,0.15464073,102.4408,200.90657)"
           d="m 108,110 c 0,7.73199 -6.26801,14 -14,14 -7.731986,0 -14,-6.26801 -14,-14 0,-7.73199 6.268014,-14 14,-14 3.022692,0 5.964204,0.97829 8.38481,2.788626"
           sodipodi:type="arc"
           style="color:#000000;fill:none;stroke:#000000;stroke-width:5.10680723;stroke-linecap:round;stroke-linejoin:round;stroke-miterlimit:4;stroke-opacity:1;stroke-dasharray:none;stroke-dashoffset:0;marker:none;visibility:visible;display:inline;overflow:visible;enable-background:accumulate"
           sodipodi:ry="14"
           sodipodi:rx="14"
           id="path13215"
           sodipodi:start="0"
           sodipodi:end="5.3545348"
           sodipodi:open="true" />
        <path
           sodipodi:cx="94"
           sodipodi:cy="110"
           transform="matrix(0.05040213,0,0,0.04890891,112.62,212.53702)"
           d="m 84.100505,119.89949 c -5.46734,-5.46734 -5.46734,-14.33165 0,-19.79899 5.46734,-5.467335 14.33165,-5.467335 19.798995,1e-5 4.48056,4.48056 5.3931,11.41194 2.22486,16.89949"
           sodipodi:type="arc"
           style="color:#000000;fill:none;stroke:#000000;stroke-width:16.11281967;stroke-linecap:round;stroke-linejoin:round;stroke-miterlimit:4;stroke-opacity:1;stroke-dasharray:none;stroke-dashoffset:0;marker:none;visibility:visible;display:inline;overflow:visible;enable-background:accumulate"
           sodipodi:ry="14"
           sodipodi:rx="14"
           id="path13217"
           sodipodi:start="2.3561945"
           sodipodi:end="6.8067841"
           sodipodi:open="true" />
        <path
           style="color:#000000;fill:none;stroke:#000000;stroke-width:0.80000001;stroke-linecap:round;stroke-linejoin:round;stroke-miterlimit:4;stroke-opacity:1;stroke-dasharray:none;stroke-dashoffset:0;marker:none;visibility:visible;display:inline;overflow:visible;enable-background:accumulate"
           d="m 108.94908,211.90284 -5.22079,5.35139 c -0.49245,0.50476 -0.72233,1.1635 -0.72233,1.82224 l 6.67711,0"
           id="path13219"
           inkscape:connector-curvature="0"
           sodipodi:nodetypes="cscc" />
        <path
           style="color:#000000;fill:none;stroke:#000000;stroke-width:0.80000001;stroke-linecap:round;stroke-linejoin:round;stroke-miterlimit:4;stroke-opacity:1;stroke-dasharray:none;stroke-dashoffset:0;marker:none;visibility:visible;display:inline;overflow:visible;enable-background:accumulate"
           d="m 109.11272,212.07323 3.9062,0"
           id="path13221"
           inkscape:connector-curvature="0" />
        <path
           style="color:#000000;fill:none;stroke:#000000;stroke-width:0.80000001;stroke-linecap:round;stroke-linejoin:round;stroke-miterlimit:4;stroke-opacity:1;stroke-dasharray:none;stroke-dashoffset:0;marker:none;visibility:visible;display:inline;overflow:visible;enable-background:accumulate"
           d="m 109.08865,210.91866 1.58194,0"
           id="path13223"
           inkscape:connector-curvature="0" />
        <path
           style="color:#000000;fill:none;stroke:#000000;stroke-width:0.80000001;stroke-linecap:round;stroke-linejoin:round;stroke-miterlimit:4;stroke-opacity:1;stroke-dasharray:none;stroke-dashoffset:0;marker:none;visibility:visible;display:inline;overflow:visible;enable-background:accumulate"
           d="m 108.77841,209.76409 0.61066,0"
           id="path13225"
           inkscape:connector-curvature="0" />
        <path
           inkscape:connector-curvature="0"
           id="path13227"
           d="m 104.90455,217.92896 3.5688,-3.5688"
           style="color:#000000;fill:none;stroke:#000000;stroke-width:0.80000001;stroke-linecap:round;stroke-linejoin:round;stroke-miterlimit:4;stroke-opacity:1;stroke-dasharray:none;stroke-dashoffset:0;marker:none;visibility:visible;display:inline;overflow:visible;enable-background:accumulate" />
        <path
           style="color:#000000;fill:none;stroke:#000000;stroke-width:0.80000001;stroke-linecap:round;stroke-linejoin:round;stroke-miterlimit:4;stroke-opacity:1;stroke-dasharray:none;stroke-dashoffset:0;marker:none;visibility:visible;display:inline;overflow:visible;enable-background:accumulate"
           d="m 106.7828,217.92896 2.11039,-2.11039"
           id="path13229"
           inkscape:connector-curvature="0" />
        <path
           id="path13231"
           d="m 113.23644,198.68323 0,3e-5 -0.41028,0.6008 c -0.057,0.0821 -0.057,0.21825 0,0.30039 l 0.41961,0.61446"
           style="color:#000000;fill:none;stroke:#000000;stroke-width:0.80000001;stroke-linecap:round;stroke-linejoin:round;stroke-miterlimit:4;stroke-opacity:1;stroke-dasharray:none;stroke-dashoffset:0;marker:none;visibility:visible;display:inline;overflow:visible;enable-background:accumulate"
           inkscape:connector-curvature="0"
           sodipodi:nodetypes="ccccc" />
        <path
           sodipodi:nodetypes="ccccc"
           inkscape:connector-curvature="0"
           style="color:#000000;fill:none;stroke:#000000;stroke-width:0.80000001;stroke-linecap:round;stroke-linejoin:round;stroke-miterlimit:4;stroke-opacity:1;stroke-dasharray:none;stroke-dashoffset:0;marker:none;visibility:visible;display:inline;overflow:visible;enable-background:accumulate"
           d="m 115.92011,198.6676 0,3e-5 0.51427,0.6008 c 0.0715,0.0821 0.0715,0.21825 0,0.30039 l -0.52597,0.61446"
           id="path13233" />
        <path
           id="path13235"
           d="m 114.55018,198.6676 0,3e-5 0.0498,0.6008 c 0.007,0.0821 0.007,0.21825 0,0.30039 l -0.051,0.61446"
           style="color:#000000;fill:none;stroke:#000000;stroke-width:0.80000001;stroke-linecap:round;stroke-linejoin:round;stroke-miterlimit:4;stroke-opacity:1;stroke-dasharray:none;stroke-dashoffset:0;marker:none;visibility:visible;display:inline;overflow:visible;enable-background:accumulate"
           inkscape:connector-curvature="0"
           sodipodi:nodetypes="ccccc" />
        <path
           inkscape:connector-curvature="0"
           id="path13237"
           d="m 109.03814,208.60949 0.83378,0"
           style="color:#000000;fill:none;stroke:#000000;stroke-width:0.80000001;stroke-linecap:round;stroke-linejoin:round;stroke-miterlimit:4;stroke-opacity:1;stroke-dasharray:none;stroke-dashoffset:0;marker:none;visibility:visible;display:inline;overflow:visible;enable-background:accumulate" />
        <path
           style="color:#000000;fill:none;stroke:#000000;stroke-width:0.80000001;stroke-linecap:round;stroke-linejoin:round;stroke-miterlimit:4;stroke-opacity:1;stroke-dasharray:none;stroke-dashoffset:0;marker:none;visibility:visible;display:inline;overflow:visible;enable-background:accumulate"
           d="m 109.30749,207.45494 2.02981,0"
           id="path13239"
           inkscape:connector-curvature="0" />
        <path
           inkscape:connector-curvature="0"
           id="path13241"
           d="m 117.85723,207.45494 4.14152,0"
           style="color:#000000;fill:none;stroke:#000000;stroke-width:0.80000001;stroke-linecap:round;stroke-linejoin:round;stroke-miterlimit:4;stroke-opacity:1;stroke-dasharray:none;stroke-dashoffset:0;marker:none;visibility:visible;display:inline;overflow:visible;enable-background:accumulate" />
        <path
           style="color:#000000;fill:none;stroke:#000000;stroke-width:0.80000001;stroke-linecap:round;stroke-linejoin:round;stroke-miterlimit:4;stroke-opacity:1;stroke-dasharray:none;stroke-dashoffset:0;marker:none;visibility:visible;display:inline;overflow:visible;enable-background:accumulate"
           d="m 120.2579,208.60949 1.74085,0"
           id="path13243"
           inkscape:connector-curvature="0" />
        <path
           inkscape:connector-curvature="0"
           id="path13245"
           d="m 121.47182,209.76409 0.52693,0"
           style="color:#000000;fill:none;stroke:#000000;stroke-width:0.80000001;stroke-linecap:round;stroke-linejoin:round;stroke-miterlimit:4;stroke-opacity:1;stroke-dasharray:none;stroke-dashoffset:0;marker:none;visibility:visible;display:inline;overflow:visible;enable-background:accumulate" />
        <path
           inkscape:connector-curvature="0"
           id="path13247"
           d="m 121.47141,210.91865 0.52734,0"
           style="color:#000000;fill:none;stroke:#000000;stroke-width:0.80000001;stroke-linecap:round;stroke-linejoin:round;stroke-miterlimit:4;stroke-opacity:1;stroke-dasharray:none;stroke-dashoffset:0;marker:none;visibility:visible;display:inline;overflow:visible;enable-background:accumulate" />
        <path
           inkscape:connector-curvature="0"
           id="path13249"
           d="m 120.79583,212.07323 1.20292,0"
           style="color:#000000;fill:none;stroke:#000000;stroke-width:0.80000001;stroke-linecap:round;stroke-linejoin:round;stroke-miterlimit:4;stroke-opacity:1;stroke-dasharray:none;stroke-dashoffset:0;marker:none;visibility:visible;display:inline;overflow:visible;enable-background:accumulate" />
        <path
           inkscape:connector-curvature="0"
           id="path13251"
           d="m 110.13038,215.02332 -0.28702,-0.64106"
           style="color:#000000;fill:none;stroke:#000000;stroke-width:0.80000001;stroke-linecap:round;stroke-linejoin:round;stroke-miterlimit:4;stroke-opacity:1;stroke-dasharray:none;stroke-dashoffset:0;marker:none;visibility:visible;display:inline;overflow:visible;enable-background:accumulate" />
        <path
           sodipodi:open="true"
           sodipodi:end="4.712389"
           sodipodi:start="0"
           id="path13253"
           sodipodi:rx="14"
           sodipodi:ry="14"
           style="color:#000000;fill:none;stroke:#000000;stroke-width:16.11281967;stroke-linecap:round;stroke-linejoin:round;stroke-miterlimit:4;stroke-opacity:1;stroke-dasharray:none;stroke-dashoffset:0;marker:none;visibility:visible;display:inline;overflow:visible;enable-background:accumulate"
           sodipodi:type="arc"
           d="m 108,110 c 0,7.73199 -6.26801,14 -14,14 -7.731986,0 -14,-6.26801 -14,-14 0,-7.73199 6.268014,-14 14,-14 0,0 0,0 0,0"
           transform="matrix(0.05040213,0,0,0.04890891,106.86595,212.53702)"
           sodipodi:cy="110"
           sodipodi:cx="94" />
        <path
           inkscape:connector-curvature="0"
           id="path13255"
           d="m 108.41798,217.92896 0.0775,-0.0775"
           style="color:#000000;fill:none;stroke:#000000;stroke-width:0.80000001;stroke-linecap:round;stroke-linejoin:round;stroke-miterlimit:4;stroke-opacity:1;stroke-dasharray:none;stroke-dashoffset:0;marker:none;visibility:visible;display:inline;overflow:visible;enable-background:accumulate" />
        <path
           inkscape:connector-curvature="0"
           id="path13257"
           d="m 108.77841,209.76409 0.61066,0"
           style="color:#000000;fill:none;stroke:#000000;stroke-width:0.80000001;stroke-linecap:round;stroke-linejoin:round;stroke-miterlimit:4;stroke-opacity:1;stroke-dasharray:none;stroke-dashoffset:0;marker:none;visibility:visible;display:inline;overflow:visible;enable-background:accumulate" />
        <path
           inkscape:connector-curvature="0"
           id="path13259"
           d="m 113.61525,201.38663 1.2832,0"
           style="color:#000000;fill:none;stroke:#000000;stroke-width:0.80000001;stroke-linecap:round;stroke-linejoin:round;stroke-miterlimit:4;stroke-opacity:1;stroke-dasharray:none;stroke-dashoffset:0;marker:none;visibility:visible;display:inline;overflow:visible;enable-background:accumulate" />
        <path
           style="color:#000000;fill:none;stroke:#000000;stroke-width:0.80000001;stroke-linecap:round;stroke-linejoin:round;stroke-miterlimit:4;stroke-opacity:1;stroke-dasharray:none;stroke-dashoffset:0;marker:none;visibility:visible;display:inline;overflow:visible;enable-background:accumulate"
           d="m 138.68226,214.41494 c 0.42828,0.42828 0.42828,1.12267 0,1.55095 -0.42828,0.42828 -1.12267,0.42829 -1.55095,0 -0.14554,-0.14553 -0.24594,-0.32775 -0.29222,-0.52492 -0.0294,-0.10988 -0.15359,-0.12443 -0.45374,-0.12443 l -1.30988,-0.0156"
           id="path13261"
           inkscape:connector-curvature="0"
           sodipodi:nodetypes="cssccc" />
        <path
           style="color:#000000;fill:none;stroke:#000000;stroke-width:0.80000001;stroke-linecap:round;stroke-linejoin:round;stroke-miterlimit:4;stroke-opacity:1;stroke-dasharray:none;stroke-dashoffset:0;marker:none;visibility:visible;display:inline;overflow:visible;enable-background:accumulate"
           d="m 132.81665,212.07323 1.20292,0"
           id="path13263"
           inkscape:connector-curvature="0" />
        <path
           inkscape:connector-curvature="0"
           id="path13265"
           d="m 132.81665,210.91865 1.20292,0"
           style="color:#000000;fill:none;stroke:#000000;stroke-width:0.80000001;stroke-linecap:round;stroke-linejoin:round;stroke-miterlimit:4;stroke-opacity:1;stroke-dasharray:none;stroke-dashoffset:0;marker:none;visibility:visible;display:inline;overflow:visible;enable-background:accumulate" />
        <path
           style="color:#000000;fill:none;stroke:#000000;stroke-width:0.80000001;stroke-linecap:round;stroke-linejoin:round;stroke-miterlimit:4;stroke-opacity:1;stroke-dasharray:none;stroke-dashoffset:0;marker:none;visibility:visible;display:inline;overflow:visible;enable-background:accumulate"
           d="m 132.81665,209.76409 1.20292,0"
           id="path13267"
           inkscape:connector-curvature="0" />
        <path
           inkscape:connector-curvature="0"
           id="path13269"
           d="m 132.81665,208.60949 1.20292,0"
           style="color:#000000;fill:none;stroke:#000000;stroke-width:0.80000001;stroke-linecap:round;stroke-linejoin:round;stroke-miterlimit:4;stroke-opacity:1;stroke-dasharray:none;stroke-dashoffset:0;marker:none;visibility:visible;display:inline;overflow:visible;enable-background:accumulate" />
        <path
           style="color:#000000;fill:none;stroke:#000000;stroke-width:0.80000001;stroke-linecap:round;stroke-linejoin:round;stroke-miterlimit:4;stroke-opacity:1;stroke-dasharray:none;stroke-dashoffset:0;marker:none;visibility:visible;display:inline;overflow:visible;enable-background:accumulate"
           d="m 113.6631,203.48419 0,2.44319"
           id="path13271"
           inkscape:connector-curvature="0" />
        <path
           style="color:#000000;fill:none;stroke:#000000;stroke-width:0.80000001;stroke-linecap:round;stroke-linejoin:round;stroke-miterlimit:4;stroke-opacity:1;stroke-dasharray:none;stroke-dashoffset:0;marker:none;visibility:visible;display:inline;overflow:visible;enable-background:accumulate"
           d="m 132.62872,200.01163 2.12371,0"
           id="path13273"
           inkscape:connector-curvature="0" />
        <path
           inkscape:connector-curvature="0"
           id="path13275"
           d="m 133.88578,198.72257 1.07834,0"
           style="color:#000000;fill:none;stroke:#000000;stroke-width:0.80000001;stroke-linecap:round;stroke-linejoin:round;stroke-miterlimit:4;stroke-opacity:1;stroke-dasharray:none;stroke-dashoffset:0;marker:none;visibility:visible;display:inline;overflow:visible;enable-background:accumulate" />
        <path
           style="color:#000000;fill:none;stroke:#000000;stroke-width:0.80000001;stroke-linecap:round;stroke-linejoin:round;stroke-miterlimit:4;stroke-opacity:1;stroke-dasharray:none;stroke-dashoffset:0;marker:none;visibility:visible;display:inline;overflow:visible;enable-background:accumulate"
           d="m 126.1905,208.3751 1.98645,0"
           id="path13277"
           inkscape:connector-curvature="0" />
        <path
           style="color:#000000;fill:none;stroke:#000000;stroke-width:0.80000001;stroke-linecap:round;stroke-linejoin:round;stroke-miterlimit:4;stroke-opacity:1;stroke-dasharray:none;stroke-dashoffset:0;marker:none;visibility:visible;display:inline;overflow:visible;enable-background:accumulate"
           d="m 114.34547,209.76409 0.76198,0"
           id="path13281"
           inkscape:connector-curvature="0" />
        <path
           inkscape:connector-curvature="0"
           id="path13287"
           d="m 114.73221,208.60949 0.52693,0"
           style="color:#000000;fill:none;stroke:#000000;stroke-width:0.80000001;stroke-linecap:round;stroke-linejoin:round;stroke-miterlimit:4;stroke-opacity:1;stroke-dasharray:none;stroke-dashoffset:0;marker:none;visibility:visible;display:inline;overflow:visible;enable-background:accumulate" />
        <path
           style="color:#000000;fill:none;stroke:#000000;stroke-width:0.80000001;stroke-linecap:round;stroke-linejoin:round;stroke-miterlimit:4;stroke-opacity:1;stroke-dasharray:none;stroke-dashoffset:0;marker:none;visibility:visible;display:inline;overflow:visible;enable-background:accumulate"
           d="m 114.90214,210.91866 0.14019,0"
           id="path13289"
           inkscape:connector-curvature="0" />
        <path
           style="color:#000000;fill:none;stroke:#000000;stroke-width:0.80000001;stroke-linecap:round;stroke-linejoin:round;stroke-miterlimit:4;stroke-opacity:1;stroke-dasharray:none;stroke-dashoffset:0;marker:none;visibility:visible;display:inline;overflow:visible;enable-background:accumulate"
           d="m 110.13038,215.02332 -0.28702,-0.64106"
           id="path3930"
           inkscape:connector-curvature="0" />
        <path
           sodipodi:nodetypes="ccccc"
           inkscape:connector-curvature="0"
           id="path4094"
           d="m 131.51318,213.91144 c -0.65077,0 -0.21094,0.20104 -0.21094,1.17166 0.75457,-1.27781 2.49852,-0.54193 2.94465,-0.55845 0,-0.43683 -0.22146,-0.61845 -0.5037,-0.61845 z"
           style="opacity:0.7;color:#000000;fill:#ffffff;fill-opacity:1;fill-rule:nonzero;stroke:none;stroke-width:1px;marker:none;visibility:visible;display:inline;overflow:visible;enable-background:accumulate" />
        <path
           sodipodi:nodetypes="ccsccc"
           inkscape:connector-curvature="0"
           id="path4118"
           d="m 128.51946,201.68706 c -0.32211,0 -0.35,-0.48263 0,-0.48263 0.57392,0 0.87016,0.15389 1.04443,0.25451 0.44504,0.25694 0.32854,0.9216 0.005,0.9216 -0.11328,0 -0.11123,-0.69348 -1.04957,-0.69348 z"
           style="opacity:0.7;color:#000000;fill:#ffffff;fill-opacity:1;fill-rule:nonzero;stroke:none;stroke-width:1px;marker:none;visibility:visible;display:inline;overflow:visible;enable-background:accumulate" />
      </g>
    </g>
  </g>
</svg>
